<svg xmlns="http://www.w3.org/2000/svg" viewBox="0 0 28 29">
  <path fill-rule="evenodd" clip-rule="evenodd" d="M10.5127 4.007V2.83936H8.17936V4.06805C7.09806 4.14561 6.33971 4.32016 5.70986 4.71297C5.10599 5.08958 4.59626 5.59932 4.21965 6.20319C3.5127 7.33675 3.5127 8.88651 3.5127 11.986V17.026C3.5127 20.1255 3.5127 21.6753 4.21965 22.8089C4.59626 23.4127 5.10599 23.9225 5.70986 24.2991C6.84342 25.006 8.39318 25.006 11.4927 25.006H16.5327C19.6322 25.006 21.182 25.006 22.3155 24.2991C22.9194 23.9225 23.4291 23.4127 23.8057 22.8089C24.5127 21.6753 24.5127 20.1255 24.5127 17.026V11.986C24.5127 8.88651 24.5127 7.33675 23.8057 6.20319C23.4291 5.59932 22.9194 5.08958 22.3155 4.71297C21.6857 4.32016 20.9273 4.14561 19.846 4.06805V2.83936H17.5127V4.007C17.2042 4.00602 16.8781 4.00602 16.5327 4.00602H11.4927C11.1473 4.00602 10.8212 4.00602 10.5127 4.007ZM8.17936 6.40857V7.50602H10.5127V6.34049C10.8139 6.33948 11.1395 6.33936 11.4927 6.33936H16.5327C16.8859 6.33936 17.2115 6.33948 17.5127 6.34049V7.50602H19.846V6.40857C19.8769 6.41126 19.9073 6.41405 19.9374 6.41696C20.6805 6.4886 20.9462 6.60892 21.0808 6.69283C21.3827 6.88114 21.6376 7.136 21.8259 7.43794C21.9098 7.57249 22.0301 7.83823 22.1018 8.5813C22.1602 9.18754 22.1747 9.9465 22.1782 11.006H5.84716C5.8507 9.9465 5.86518 9.18754 5.92363 8.5813C5.99527 7.83823 6.11559 7.57249 6.1995 7.43794C6.38781 7.136 6.64268 6.88114 6.94461 6.69283C7.07917 6.60892 7.3449 6.4886 8.08797 6.41696C8.11805 6.41405 8.14851 6.41126 8.17936 6.40857ZM5.84603 13.3394V17.026C5.84603 18.6216 5.84856 19.6521 5.92363 20.4307C5.99527 21.1738 6.11559 21.4396 6.1995 21.5741C6.38781 21.876 6.64268 22.1309 6.94461 22.3192C7.07917 22.4031 7.3449 22.5235 8.08797 22.5951C8.86658 22.6702 9.89708 22.6727 11.4927 22.6727H16.5327C18.1283 22.6727 19.1588 22.6702 19.9374 22.5951C20.6805 22.5235 20.9462 22.4031 21.0808 22.3192C21.3827 22.1309 21.6376 21.876 21.8259 21.5741C21.9098 21.4396 22.0301 21.1738 22.1018 20.4307C22.1768 19.6521 22.1794 18.6216 22.1794 17.026V13.3394H5.84603Z" />
</svg>
